<?xml version="1.0" encoding="UTF-8"?>
<svg version="1.1" xmlns="http://www.w3.org/2000/svg" width="4096" height="1373">
<path d="M0 0 C1351.68 0 2703.36 0 4096 0 C4096 453.09 4096 906.18 4096 1373 C2744.32 1373 1392.64 1373 0 1373 C0 919.91 0 466.82 0 0 Z " fill="#FEFEFE" transform="translate(0,0)"/>
<path d="M0 0 C52.8 0 105.6 0 160 0 C160 32.01 160 64.02 160 97 C233.92 97 307.84 97 384 97 C381.03 100.465 381.03 100.465 378 104 C376.55650559 105.7659504 375.11856885 107.5364654 373.6875 109.3125 C369.96081434 113.88473619 366.09780978 118.29719483 362.125 122.65625 C360.17505276 124.80692711 358.26973871 126.98824971 356.375 129.1875 C354.21486495 131.67462797 351.99165966 134.021834 349.625 136.3125 C345.86534632 140.00501701 342.63055739 144.06410392 339.328125 148.1640625 C336.37325812 151.76344733 333.26857477 155.2067472 330.1328125 158.6484375 C327.60946925 161.43058519 325.15044878 164.26425028 322.703125 167.11328125 C321.39621425 168.56107458 320.03171151 169.95704799 318.64453125 171.328125 C315.75249678 174.25006234 313.09228842 177.30191267 310.4375 180.4375 C309.3815703 181.67713435 308.32557887 182.91671611 307.26953125 184.15625 C306.73150879 184.78917969 306.19348633 185.42210937 305.63916016 186.07421875 C302.97633911 189.2026567 300.30017975 192.31963112 297.625 195.4375 C296.67962149 196.540308 295.73430694 197.64317083 294.7890625 198.74609375 C294.11085449 199.5347583 294.11085449 199.5347583 293.41894531 200.33935547 C292.40111991 201.53055443 291.3909174 202.72828298 290.38574219 203.93017578 C289.85368164 204.56294434 289.32162109 205.19571289 288.7734375 205.84765625 C288.29052246 206.42652588 287.80760742 207.00539551 287.31005859 207.60180664 C286 209 286 209 284 210 C283.67 210.99 283.34 211.98 283 213 C281.34408401 214.34666173 279.67585457 215.67823337 278 217 C276.55921407 218.64928556 275.16473162 220.33986347 273.8125 222.0625 C270.62283525 226.04825413 267.33958663 229.87565283 263.875 233.625 C260.82024494 236.93510611 257.9561047 240.27480785 255.25 243.875 C252.95793718 246.90265508 250.6688866 249.18236802 247.6484375 251.515625 C244.5213448 254.33149046 242.04886301 257.75066653 239.4296875 261.03125 C236.28983635 264.86772407 232.94327154 268.48479099 229.5546875 272.1015625 C227.37791787 274.5712308 225.35295849 277.07894783 223.34033203 279.68115234 C222.40037888 280.89489029 222.40037888 280.89489029 221.44143677 282.13314819 C220.72792557 283.05723984 220.72792557 283.05723984 220 284 C221.96412338 283.97882111 221.96412338 283.97882111 223.96792603 283.95721436 C236.35470285 283.83155993 248.7404004 283.76981831 261.12783241 283.76940536 C267.4954336 283.76717254 273.86132879 283.74303257 280.22851562 283.66748047 C286.38244044 283.59528726 292.53398275 283.58239951 298.68824387 283.60929108 C301.02686276 283.60934655 303.36558435 283.58862987 305.70381546 283.5460434 C326.86651486 283.18420821 326.86651486 283.18420821 335.23974609 290.81738281 C336.78062701 292.35257564 338.25128815 293.9175903 339.68848801 295.54994965 C341.60381984 297.66760287 343.75821384 299.47345562 345.9375 301.3125 C355.63534821 310.13018047 365.01178163 319.3105454 373.125 329.62109375 C374.87154202 331.83701894 376.69068401 333.95237411 378.5625 336.0625 C381 339 381 339 381 341 C381.99 341.33 382.98 341.66 384 342 C385.37866211 343.59472656 385.37866211 343.59472656 386.77734375 345.640625 C387.29103516 346.38183594 387.80472656 347.12304688 388.33398438 347.88671875 C388.86314453 348.66660156 389.39230469 349.44648437 389.9375 350.25 C390.98684842 351.77702727 392.0375979 353.30309284 393.08984375 354.828125 C393.59290039 355.55926514 394.09595703 356.29040527 394.61425781 357.04370117 C395.698208 358.57395009 396.8574577 360.05091852 398.04296875 361.50390625 C400.81360298 365.03770919 403.06290955 368.84318139 405.375 372.6875 C405.86178223 373.4911499 406.34856445 374.2947998 406.85009766 375.12280273 C407.80922483 376.70752421 408.76679927 378.29318671 409.72265625 379.87988281 C410.76958538 381.61756106 411.82158121 383.35218575 412.875 385.0859375 C416.04661301 390.32240273 419.0715349 395.6241145 422 401 C422.58136719 402.05832031 423.16273438 403.11664062 423.76171875 404.20703125 C426.76757237 409.72091368 429.66503016 415.16257541 432 421 C432.81120861 422.93804105 433.62385373 424.87548109 434.4375 426.8125 C435.29285179 428.87450879 436.14707449 430.93698642 437 433 C437.33 433.79148437 437.66 434.58296875 438 435.3984375 C442.7475822 446.9904507 446.98012371 458.83798458 450 471 C450.33157183 472.30350237 450.66364082 473.60687833 450.99609375 474.91015625 C453.81604631 486.03416088 456.28720522 497.09046381 458.0625 508.4375 C458.23587891 509.48615234 458.40925781 510.53480469 458.58789062 511.61523438 C461.05606333 527.37938724 461.16615827 543.24542708 461.13037109 559.16796875 C461.12500484 561.99745029 461.13035928 564.82677318 461.13671875 567.65625 C461.14654355 585.03414686 460.42558021 601.83372167 457.25 618.9375 C457.11749847 619.6705838 456.98499695 620.4036676 456.84848022 621.15896606 C454.77922779 632.60427091 452.25583256 643.83214424 449 655 C448.45554379 657.08260606 447.91347771 659.16584014 447.375 661.25 C446.25464731 665.34746967 444.70019727 669.10371458 443 673 C442.50146212 674.57734116 442.02387033 676.16138974 441.5625 677.75 C438.05048837 689.80424827 433.1202565 700.97193884 427.3671875 712.10546875 C425.99054707 715.0200132 424.95672768 717.92480389 424 721 C423.34 721 422.68 721 422 721 C421.773125 721.969375 421.54625 722.93875 421.3125 723.9375 C419.97118602 728.70013658 417.48145126 732.75472972 415 737 C414.67 737.66 414.34 738.32 414 739 C413.34 739 412.68 739 412 739 C411.731875 739.86625 411.46375 740.7325 411.1875 741.625 C410.02888013 744.91791964 408.61790161 747.91127875 407 751 C406.34 751 405.68 751 405 751 C404.731875 751.721875 404.46375 752.44375 404.1875 753.1875 C403.00098638 755.99766383 401.72514361 758.48416557 400 761 C399.34 761 398.68 761 398 761 C397.91621094 761.54527344 397.83242188 762.09054687 397.74609375 762.65234375 C396.74953827 765.78810208 395.03693655 767.93824889 393.0625 770.5625 C390.97988335 773.3481415 388.92961929 776.10557106 387 779 C386.34 779 385.68 779 385 779 C384.76023437 779.53753906 384.52046875 780.07507813 384.2734375 780.62890625 C379.79789315 788.96220508 372.8590126 796.35739036 366.5 803.3125 C365.9838916 803.88154053 365.4677832 804.45058105 364.93603516 805.03686523 C363.66751815 806.39972951 362.33858741 807.70589097 361 809 C360.34 809 359.68 809 359 809 C358.90460937 809.59683594 358.80921875 810.19367187 358.7109375 810.80859375 C357.8384466 813.49797505 356.82102738 814.31015979 354.625 816.0625 C351.15351218 818.9492514 348.00919529 821.99989512 344.875 825.25 C340.33633102 829.89160293 335.49250073 833.92428339 330.34008789 837.86523438 C326.20547783 841.02895292 322.24159963 844.3356629 318.3125 847.75 C313.61420754 851.80670993 308.78334784 855.27852286 303.4375 858.46484375 C300.95911074 859.95607317 300.95911074 859.95607317 298.734375 861.8515625 C295.09494039 864.71111827 291.20821246 867.04744978 287.25 869.4375 C286.48945312 869.90220703 285.72890625 870.36691406 284.9453125 870.84570312 C281.10450237 873.17948352 277.23829905 875.43780212 273.296875 877.59765625 C270.73723306 879.00190426 268.35237552 880.43476313 265.921875 882.06640625 C262.48944545 884.33786698 258.94441533 886.13668239 255.25 887.9375 C253.8254611 888.63920166 252.40098179 889.34102431 250.9765625 890.04296875 C250.29239258 890.3786084 249.60822266 890.71424805 248.90332031 891.06005859 C246.46411127 892.2646449 244.04577683 893.50887156 241.625 894.75 C229.08262712 901 229.08262712 901 223 901 C223 901.66 223 902.32 223 903 C221.90042969 903.38671875 220.80085937 903.7734375 219.66796875 904.171875 C218.1744689 904.69788752 216.68097991 905.22393087 215.1875 905.75 C214.10952148 906.12898438 214.10952148 906.12898438 213.00976562 906.515625 C208.87511339 907.97277116 204.75350781 909.45898848 200.640625 910.9765625 C194.99798729 913.03111434 189.30330199 914.86578475 183.5625 916.625 C182.61568359 916.9240625 181.66886719 917.223125 180.69335938 917.53125 C173.72297181 919.67016051 167.32184408 920.77969265 160 922 C160 956.65 160 991.3 160 1027 C107.2 1027 54.4 1027 0 1027 C0 994.66 0 962.32 0 929 C-5.28 928.67 -10.56 928.34 -16 928 C-20.26654221 927.2754452 -24.41535954 926.50870359 -28.625 925.5625 C-29.64722656 925.34529297 -30.66945313 925.12808594 -31.72265625 924.90429688 C-36.59721525 923.84888196 -41.284163 922.63904091 -46 921 C-47.45255923 920.69973599 -48.91134529 920.42791982 -50.375 920.1875 C-55.08714705 919.2865432 -59.61306276 917.98759285 -64.1875 916.5625 C-64.85249512 916.35713623 -65.51749023 916.15177246 -66.20263672 915.94018555 C-70.60176777 914.54393961 -74.77043159 912.8450799 -79 911 C-80.40849272 910.49731381 -81.8243765 910.01432162 -83.25 909.5625 C-98.42734377 904.60610855 -113.23994849 898.54009379 -127.4453125 891.24609375 C-129.32952877 890.32703413 -131.24879596 889.47902991 -133.18359375 888.671875 C-137.91351049 886.66972274 -142.40830436 884.22692292 -146.9375 881.8125 C-147.81212891 881.34908203 -148.68675781 880.88566406 -149.58789062 880.40820312 C-151.72657551 879.27458327 -153.86389366 878.13846899 -156 877 C-156 876.34 -156 875.68 -156 875 C-156.57234375 874.87753906 -157.1446875 874.75507812 -157.734375 874.62890625 C-160.09953191 873.97237132 -162.07206797 873.06276488 -164.25 871.9375 C-164.95640625 871.57527344 -165.6628125 871.21304688 -166.390625 870.83984375 C-166.92171875 870.56269531 -167.4528125 870.28554687 -168 870 C-168 869.34 -168 868.68 -168 868 C-168.78375 867.814375 -169.5675 867.62875 -170.375 867.4375 C-175.49901633 865.40556249 -179.56358027 862.23065721 -184 859 C-185.68563443 857.83063952 -187.37310561 856.6639218 -189.0625 855.5 C-193.83791643 852.1572085 -198.42676356 848.61213596 -203 845 C-204.58249108 843.76974916 -206.1658159 842.54056999 -207.75 841.3125 C-208.48605469 840.73757813 -209.22210938 840.16265625 -209.98046875 839.5703125 C-211.66342896 838.26170514 -213.36119104 836.97216187 -215.0625 835.6875 C-215.701875 835.130625 -216.34125 834.57375 -217 834 C-217 833.34 -217 832.68 -217 832 C-217.53367187 831.7834375 -218.06734375 831.566875 -218.6171875 831.34375 C-221.86803344 829.51048606 -224.42786805 827.04492898 -227.125 824.5 C-227.975177 823.70674316 -227.975177 823.70674316 -228.8425293 822.89746094 C-234.01212045 818.04784027 -239.0384718 813.06232674 -244 808 C-240.12068862 802.55375109 -235.88311805 797.58675884 -231.37109375 792.65625 C-228.15930173 789.05819633 -225.14754857 785.31275996 -222.140625 781.54296875 C-219.89118062 778.87072734 -217.48655485 776.45158767 -215 774 C-210.33138264 769.0076464 -205.85911088 763.8781301 -201.5625 758.5625 C-197.64780952 753.72550024 -193.53260017 749.11732958 -189.32421875 744.53515625 C-186.15325901 741.07641193 -183.0733924 737.54531446 -180 734 C-178.99885245 732.85272971 -177.99753412 731.70560845 -176.99609375 730.55859375 C-171.20985636 723.91926271 -165.49195639 717.25358594 -160 710.3671875 C-157.7972332 707.76000648 -155.42410864 705.40176663 -153 703 C-151.42577916 701.28149706 -149.86295037 699.5524791 -148.3125 697.8125 C-144.18055556 693.18055556 -144.18055556 693.18055556 -142 691 C-139.5 693.3125 -139.5 693.3125 -137 696 C-137 696.99 -137 697.98 -137 699 C-136.45214844 699.20882812 -135.90429688 699.41765625 -135.33984375 699.6328125 C-132.14276074 701.50089105 -129.97715992 704.12324399 -127.5625 706.875 C-121.4220871 713.70128976 -114.83868446 719.88307643 -108 726 C-106.90558594 727.00160156 -106.90558594 727.00160156 -105.7890625 728.0234375 C-99.52804603 733.67112991 -92.69796414 739.45677819 -85 743 C-85 743.66 -85 744.32 -85 745 C-84.26910156 745.27457031 -83.53820312 745.54914062 -82.78515625 745.83203125 C-80.15046403 746.93690218 -77.86461272 748.18852176 -75.4375 749.6875 C-74.55707031 750.22117187 -73.67664063 750.75484375 -72.76953125 751.3046875 C-70.97032281 752.40603653 -69.17574761 753.51500373 -67.38671875 754.6328125 C-54.81690893 762.27781706 -40.99262791 768.46535206 -27 773 C-26.0615625 773.31195312 -25.123125 773.62390625 -24.15625 773.9453125 C-20.78677515 775.02592691 -17.40034027 776.02078809 -14 777 C-13.34580078 777.1973877 -12.69160156 777.39477539 -12.01757812 777.59814453 C18.87271325 786.80333621 51.87028799 787.8501765 83.6875 784.25 C84.39366455 784.17177002 85.0998291 784.09354004 85.82739258 784.01293945 C94.7458884 782.99859738 103.22367026 781.34791078 111.85888672 778.88745117 C114.38214541 778.17456097 116.86675093 777.56511127 119.4375 777.0625 C143.46462077 771.93005265 166.31391713 761.19095608 187.625 749.25 C188.60098145 748.70327637 188.60098145 748.70327637 189.59667969 748.14550781 C192.59303162 746.44420253 195.49717774 744.68870568 198.3359375 742.734375 C201 741 201 741 203 741 C203 740.34 203 739.68 203 739 C204.64676527 737.96755537 206.32016441 736.97771681 208 736 C210.70905104 734.07723803 213.35191816 732.06810442 216 730.0625 C216.69867187 729.53720703 217.39734375 729.01191406 218.1171875 728.47070312 C223.72925395 724.24047568 229.07523025 720.03635818 234 715 C235.02697619 713.9813868 236.05571206 712.96454554 237.0859375 711.94921875 C242.94476855 706.14864939 248.75302291 700.37041744 254 694 C254.64324219 693.22269531 255.28648437 692.44539062 255.94921875 691.64453125 C263.07940129 682.8845927 269.31573718 673.75269458 275 664 C275.59039063 663.00484375 276.18078125 662.0096875 276.7890625 660.984375 C299.50187351 622.51757168 310.28635668 571.02089523 299.046875 527.0546875 C298.37411318 524.68997989 297.67199723 522.33332088 296.93359375 519.98828125 C296.1580583 517.50591881 295.55875502 515.10994244 295.0625 512.5625 C292.31984127 499.5530745 286.90809443 487.02871378 281.375 475 C281.07352051 474.34 280.77204102 473.68 280.46142578 473 C279.18985035 470.27671519 278.14234552 468.14234552 276 466 C275.27296875 466.78761719 274.5459375 467.57523438 273.796875 468.38671875 C269.515625 473.02473958 265.234375 477.66276042 260.953125 482.30078125 C260.22113892 483.09379639 260.22113892 483.09379639 259.47436523 483.90283203 C258.48177037 484.97810204 257.48909302 486.05329592 256.49633789 487.12841797 C254.03080978 489.79870824 251.56659886 492.47018649 249.10546875 495.14453125 C246.07609217 498.43505221 243.04025791 501.7195309 240 505 C239.4131543 505.63341309 238.82630859 506.26682617 238.22167969 506.91943359 C231.10993308 514.58356705 223.95916776 522.18487487 216.47485352 529.48828125 C213.07705572 532.82702114 209.9324576 536.32739517 206.81640625 539.9296875 C203.19397178 544.05848377 199.38224236 548.01297301 195.60546875 552 C194.98285156 552.66 194.36023438 553.32 193.71875 554 C193.08235596 554.65137939 192.44596191 555.30275879 191.7902832 555.97387695 C189.94121564 557.93341618 189.94121564 557.93341618 188.69995117 560.23510742 C186.69046545 563.42353898 184.88231283 565.54400156 181.09503174 566.46148682 C174.87039003 567.32431694 168.58464546 567.25978181 162.3125 567.3125 C159.14813763 567.38323376 155.98434279 567.46826507 152.82034302 567.55357361 C150.61055699 567.61212886 148.40064628 567.66613758 146.19064331 567.71583557 C134.96543561 567.97836525 123.77505925 568.64851751 112.57040405 569.3543396 C96.54250471 570.35914922 80.53736324 571.20606047 64.48150635 571.54226685 C49.55191023 571.86495135 34.66646605 572.79633639 19.76281738 573.70498657 C-0.153878 574.9124285 -20.05051274 575.6571537 -40 576 C-36.95548777 569.68338741 -32.45429991 564.03654674 -27.0625 559.5625 C-23.27272492 556.39146371 -20.44241553 552.7564616 -17.36328125 548.90625 C-14.40732975 545.27116253 -11.28472623 541.81256489 -8.1328125 538.34765625 C-4.11256318 533.92243677 -0.16432228 529.43735607 3.625 524.8125 C5.96140348 522.04570641 8.43975874 519.56024126 11 517 C18.09030964 509.38345644 24.85686646 501.47620759 31.13671875 493.17578125 C32.05904297 492.09876953 32.05904297 492.09876953 33 491 C33.66 491 34.32 491 35 491 C35.268125 490.360625 35.53625 489.72125 35.8125 489.0625 C37 487 37 487 40 486 C40.69321767 484.68027598 41.35515299 483.34402179 42 482 C43.31262246 480.44316871 44.67245325 478.92561001 46.0625 477.4375 C49.31107492 473.89831774 52.42468216 470.30439832 55.4375 466.5625 C59.3504675 461.72762916 63.46237686 457.12047516 67.671875 452.54296875 C69.60694262 450.42932946 71.50208297 448.29340152 73.375 446.125 C75.957812 443.14623805 78.61762531 440.25095291 81.30688477 437.36889648 C87.14607372 431.10788227 92.65235496 424.690058 98 418 C103.77777778 410.88888889 103.77777778 410.88888889 107 408 C107.66 408 108.32 408 109 408 C109.24621094 407.43410156 109.49242187 406.86820313 109.74609375 406.28515625 C111.21536224 403.60751742 112.97752435 401.66956388 115.0625 399.4375 C118.23482594 395.98318953 121.26458533 392.47982739 124.1875 388.8125 C129.58661811 382.13688286 135.49928494 375.96366725 141.38427734 369.72021484 C146.58592589 364.18216473 151.6009388 358.53574244 156.375 352.625 C161.95397912 345.73216639 167.84549264 338.96794917 174.26171875 332.83984375 C176.22855147 331.01710576 176.22855147 331.01710576 177 328 C178.37893892 326.89684886 179.75848136 325.79444577 181.140625 324.6953125 C184.33236004 321.78520114 186.87866971 318.33947543 189.5703125 314.97265625 C192.78630922 311.03797216 196.20456797 307.31284551 199.64453125 303.57421875 C202.26276547 300.71283177 204.80865145 297.79658674 207.33203125 294.8515625 C209.46913435 292.47922791 211.72918963 290.24382281 214 288 C205.37108507 287.93149982 196.74318355 287.93507831 188.11425781 287.98754883 C186.72559238 287.99572688 185.33691966 288.00276152 183.94824219 288.00854492 C137.15155618 288.21635546 90.26764136 293.66711284 44.92333984 305.27050781 C42.38810025 305.9031532 39.85192954 306.48186387 37.296875 307.02734375 C32.49957855 308.07082968 27.82054383 309.44808722 23.125 310.875 C22.24513428 311.14111084 21.36526855 311.40722168 20.45874023 311.68139648 C14.22327176 313.58551025 8.08039806 315.64361473 2 318 C0.94554687 318.40089844 -0.10890625 318.80179687 -1.1953125 319.21484375 C-20.18211799 326.46154793 -38.68610123 334.2679766 -56 345 C-57.134375 345.639375 -58.26875 346.27875 -59.4375 346.9375 C-73.20432691 354.80881076 -86.36339434 364.20406167 -98 375 C-99.03865302 375.94836533 -100.07775866 376.89623505 -101.1171875 377.84375 C-112.92940165 388.60704999 -112.92940165 388.60704999 -123.2265625 400.7890625 C-125 403 -125 403 -127.453125 405.390625 C-130.12304514 408.12606465 -132.06920902 410.90829175 -134.125 414.125 C-137.69846059 419.70071089 -137.69846059 419.70071089 -139.5703125 421.55859375 C-141.46845835 423.47229817 -142.50253735 425.55120207 -143.75 427.9375 C-145.95261645 432.07973393 -148.23688679 436.14923131 -150.625 440.1875 C-155.13302339 447.89859264 -158.6345123 455.468571 -161.77734375 463.83984375 C-162.78757514 466.450953 -163.873422 468.96796331 -165.0625 471.5 C-167.61767498 477.15422256 -169.31631847 483.03778659 -171 489 C-171.31839844 490.11246094 -171.63679687 491.22492188 -171.96484375 492.37109375 C-172.86810927 495.74110849 -173.68140741 499.11134378 -174.43945312 502.51611328 C-174.82490353 504.22411522 -175.2282844 505.92813817 -175.64648438 507.62841797 C-178.91740541 521.23929212 -180.16322558 534.34411412 -180.29296875 548.30859375 C-180.30529037 549.57954391 -180.317612 550.85049408 -180.33030701 552.15995789 C-180.3774981 558.63703135 -180.3639525 565.10897502 -180.28393555 571.58569336 C-180.28007465 574.01285752 -180.27656081 576.44002227 -180.2734375 578.8671875 C-180.24328049 579.98592758 -180.21312347 581.10466766 -180.18205261 582.25730896 C-180.20080312 587.76157362 -180.40508257 591.08557517 -184.39941406 595.0871582 C-185.59002932 596.0698294 -186.78944977 597.04199398 -188 598 C-189.48883201 599.74526963 -190.95059785 601.5142605 -192.375 603.3125 C-195.35849608 607.02157421 -198.41270404 610.61223418 -201.625 614.125 C-205.10090766 617.93454626 -208.30824317 621.8618958 -211.39453125 625.9921875 C-213.1377928 628.17232481 -214.92937674 630.12677896 -217 632 C-217.66 632 -218.32 632 -219 632 C-219.36931641 632.84884766 -219.36931641 632.84884766 -219.74609375 633.71484375 C-221.21536224 636.39248258 -222.97752435 638.33043612 -225.0625 640.5625 C-229.19335607 645.06526595 -233.08541444 649.71205885 -236.93359375 654.45703125 C-241.08376922 659.56433604 -245.34539399 664.34539399 -250 669 C-255.97057082 675.34620276 -261.64335035 681.88679681 -267.08984375 688.6875 C-270.16593953 692.41152597 -270.16593953 692.41152597 -272 694 C-272.66 694 -273.32 694 -274 694 C-274.0825 694.556875 -274.165 695.11375 -274.25 695.6875 C-275.60208664 699.85643381 -278.29882599 702.44558334 -281.6875 705.125 C-285.59369896 708.25584791 -288.4998613 712.17376766 -291.6171875 716.0625 C-293.99700276 718.99630505 -296.4363316 721.85659558 -298.9375 724.6875 C-300.03384766 725.93080078 -300.03384766 725.93080078 -301.15234375 727.19921875 C-303 729 -303 729 -305 729 C-307.61784754 722.88479093 -310.16625941 716.7995327 -312.19140625 710.4609375 C-313.20830116 707.36603993 -314.32557892 704.31200759 -315.4375 701.25 C-320.29890612 687.68769885 -324.07418125 673.87101459 -327.51953125 659.89208984 C-328.4396169 656.17399562 -329.42473334 652.48827571 -330.5 648.8125 C-332.58653203 641.105793 -334.09206542 633.31474956 -335.41894531 625.4453125 C-335.82248657 623.05255022 -336.23947379 620.66203226 -336.66699219 618.2734375 C-340.58051951 596.10278554 -341.48955873 574.05483642 -341.49855042 551.59251404 C-341.49998045 549.46656136 -341.50624924 547.34066309 -341.51306152 545.21472168 C-341.54702095 529.42098561 -340.98871449 514.00007085 -338.38369751 498.40193176 C-337.82958856 494.9332309 -337.38705336 491.45222727 -336.94512939 487.9677124 C-334.79034146 471.3575635 -330.66356754 455.23085344 -326.375 439.0625 C-326.08592773 437.96655518 -325.79685547 436.87061035 -325.49902344 435.74145508 C-324.01734255 430.26510469 -322.36022398 425.15628477 -320 420 C-319.51838157 418.63298203 -319.05635596 417.25870029 -318.625 415.875 C-316.64927887 409.82562704 -314.33779463 403.91734467 -312 398 C-311.74202637 397.3390332 -311.48405273 396.67806641 -311.21826172 395.99707031 C-306.60935061 384.23069402 -301.18450867 373.24159441 -294.859375 362.29296875 C-292.96560024 358.93907773 -291.4849477 355.55096189 -290 352 C-289.01462479 349.9927542 -288.01936943 347.99019747 -287 346 C-286.34 346 -285.68 346 -285 346 C-284.74347656 345.13503906 -284.48695313 344.27007813 -284.22265625 343.37890625 C-278.12074986 326.51581033 -264.06016366 310.9611849 -253.125 297.0625 C-251.36395217 294.82079921 -249.82842486 292.70964207 -248.375 290.25 C-247 288 -247 288 -244.765625 285.76953125 C-241.78749846 282.78719831 -239.08808016 279.65777319 -236.375 276.4375 C-227.76744697 266.34244847 -218.79660677 256.69557848 -209.45355225 247.27832031 C-208.04332142 245.85618705 -206.63707405 244.43010712 -205.23095703 243.00390625 C-199.89343006 237.65969902 -194.40246547 232.70509258 -188.48950195 228.00366211 C-185.27960489 225.42019392 -182.22186768 222.68633283 -179.16796875 219.921875 C-174.47677319 215.76319353 -169.60474068 211.868216 -164.625 208.0625 C-164.05193115 207.62357422 -163.4788623 207.18464844 -162.88842773 206.73242188 C-161.2601761 205.48667942 -159.63014557 204.24326306 -158 203 C-157.29746094 202.46246094 -156.59492188 201.92492187 -155.87109375 201.37109375 C-143.45788765 191.96065025 -130.67724283 183.35872795 -117.28125 175.41015625 C-115.19745129 174.12205465 -113.22333496 172.7622088 -111.25 171.3125 C-108 169 -108 169 -105.3828125 167.6953125 C-100.16846896 165.08211955 -95.18996781 162.07094536 -90.1640625 159.11523438 C-82.94966694 154.9010562 -75.67808992 151.29060996 -68 148 C-66.78738592 147.40447175 -65.57927539 146.79971531 -64.375 146.1875 C-55.29644846 141.61344051 -46.12274146 137.52704629 -36.55664062 134.09228516 C-32.54725005 132.6410645 -28.79769282 130.93093959 -25 129 C-23.70108977 128.50446199 -22.38852197 128.04260201 -21.0625 127.625 C-14.35680323 125.47255412 -7.68127631 123.2270921 -1 121 C-0.67 81.07 -0.34 41.14 0 0 Z " fill="#18DCDE" transform="translate(564,173)"/>
<path d="M0 0 C1.29292969 0.23976563 2.58585937 0.47953125 3.91796875 0.7265625 C34.24636214 6.74593829 64.20064768 24.74362579 81.8125 50.66796875 C83.27338016 53.08207322 84.65553603 55.51954908 86 58 C86.70599145 59.23051326 87.41409376 60.45981961 88.125 61.6875 C89.053125 63.3271875 89.053125 63.3271875 90 65 C90.33902344 65.57363281 90.67804687 66.14726563 91.02734375 66.73828125 C99.58584633 81.30388376 105.54764771 100.61807488 107.52696514 117.37369156 C107.87177854 120.01704799 108.26589361 122.61597264 108.72362232 125.23931503 C110.88319119 137.87596863 111.413949 150.11549667 111.34057617 162.91503906 C111.33972737 165.02633655 111.34020996 167.13763491 111.34190369 169.24893188 C111.3427552 174.91293619 111.32526799 180.57674515 111.30418181 186.24070454 C111.28527247 192.18501577 111.28365344 198.12933277 111.28010559 204.07366943 C111.27082664 215.29990763 111.24626972 226.5260569 111.21605712 237.75225616 C111.18238302 250.54569253 111.16599456 263.33913342 111.15097082 276.13260317 C111.11971592 302.42179591 111.06475647 328.71086696 111 355 C83.61 355 56.22 355 28 355 C27.97494385 349.06596191 27.9498877 343.13192383 27.92407227 337.01806641 C27.84046555 317.37651965 27.7518435 297.73499786 27.66066074 278.09348488 C27.60551746 266.18896032 27.55206783 254.28443277 27.50268555 242.37988281 C27.45961085 231.99695484 27.41327663 221.61404725 27.36312145 211.23115098 C27.3367066 205.73981731 27.31186072 200.24848719 27.29092598 194.75712967 C27.27111716 189.57467066 27.24690717 184.39224978 27.21950912 179.20982552 C27.21026522 177.32102601 27.20254658 175.43221824 27.19658089 173.54340553 C27.16686311 164.40528474 27.04373454 155.28727734 26.56651306 146.1602478 C26.53032067 145.43732154 26.49412828 144.71439529 26.45683914 143.96956217 C26.07572374 137.45250458 24.83004624 131.30118236 23.1875 125 C22.93935547 123.97261719 22.69121094 122.94523438 22.43554688 121.88671875 C20.06343419 112.38619619 17.03894725 102.86706393 11 95 C10.34 94.67 9.68 94.34 9 94 C9 93.01 9 92.02 9 91 C8.360625 90.731875 7.72125 90.46375 7.0625 90.1875 C5 89 5 89 4 86 C2.6846659 85.29848848 1.34882408 84.63474075 0 84 C-0.42410156 83.55527344 -0.84820313 83.11054687 -1.28515625 82.65234375 C-12.40709362 71.93576173 -30.45415604 69.3669626 -45.23999023 69.59741211 C-62.25495971 70.25076621 -76.32162534 74.32641497 -91 83 C-91.66 83 -92.32 83 -93 83 C-93 83.66 -93 84.32 -93 85 C-94.64421131 86.26660762 -96.3427295 87.46305546 -98.0625 88.625 C-116.64074023 101.85099433 -125.63340516 123.20121568 -129.62140274 145.00880527 C-132.39044268 162.63237821 -131.61087079 180.73012484 -131.60750484 198.51594996 C-131.61066781 204.03188992 -131.63635515 209.54772804 -131.65948486 215.06361389 C-131.6997923 225.47159949 -131.72032566 235.87952284 -131.73345876 246.28757435 C-131.74941514 258.15250807 -131.78786635 270.01733713 -131.82805204 281.88220966 C-131.91010479 306.25479191 -131.96144455 330.62730744 -132 355 C-159.39 355 -186.78 355 -215 355 C-215.02505615 348.92907959 -215.0501123 342.85815918 -215.07592773 336.60327148 C-215.15946989 316.5266424 -215.24809974 296.45003815 -215.33933926 276.37344265 C-215.39452419 264.2031541 -215.44798126 252.03286262 -215.49731445 239.86254883 C-215.5403375 229.25002105 -215.58665981 218.63751357 -215.63687855 208.02501732 C-215.66333432 202.41025929 -215.68818234 196.79550491 -215.70907402 191.18072319 C-215.72882773 185.88582731 -215.75302395 180.59096955 -215.78049088 175.29610825 C-215.78976316 173.36250954 -215.79747248 171.42890255 -215.80341911 169.49529076 C-215.86036126 146.88482415 -215.86036126 146.88482415 -219.8125 124.6875 C-220.06064453 123.69427734 -220.30878906 122.70105469 -220.56445312 121.67773438 C-222.73996908 113.23584676 -225.21216748 104.84583261 -230.4375 97.75 C-231.04207031 96.92757812 -231.64664063 96.10515625 -232.26953125 95.2578125 C-232.84058594 94.51273438 -233.41164063 93.76765625 -234 93 C-234.45761719 92.39929688 -234.91523438 91.79859375 -235.38671875 91.1796875 C-237.35600438 88.70720901 -239.33914767 86.72868186 -241.8125 84.75 C-242.534375 84.1725 -243.25625 83.595 -244 83 C-244 82.34 -244 81.68 -244 81 C-244.73863281 80.71898437 -245.47726563 80.43796875 -246.23828125 80.1484375 C-248.70349537 79.12329895 -250.87561131 77.94728242 -253.1875 76.625 C-273.47212294 66.49771418 -296.95859974 68.58411712 -318 75 C-331.7119442 80.35374655 -348.15575994 89.31151988 -355 103 C-355.66 103 -356.32 103 -357 103 C-357.40605469 104.06154297 -357.40605469 104.06154297 -357.8203125 105.14453125 C-359.03371476 108.08160759 -360.41945493 110.86313923 -361.875 113.6875 C-362.92195777 115.78903902 -363.96390056 117.89308644 -365 120 C-365.37640625 120.75925781 -365.7528125 121.51851562 -366.140625 122.30078125 C-372.08746953 135.58678709 -374.13918603 151.97919572 -374.15821838 166.44091797 C-374.16315636 167.25221318 -374.16809434 168.0635084 -374.17318195 168.89938831 C-374.18844588 171.59698613 -374.19688719 174.29456036 -374.20532227 176.9921875 C-374.21490954 178.93423161 -374.22492011 180.87627367 -374.23532104 182.8183136 C-374.26228416 188.07592349 -374.2833401 193.33354228 -374.30332303 198.59118271 C-374.32523576 204.09115966 -374.35259852 209.59110944 -374.37937927 215.09106445 C-374.4292348 225.49953594 -374.47420005 235.90802255 -374.51740164 246.31652355 C-374.56683513 258.16898036 -374.62173055 270.02140991 -374.67708123 281.87384033 C-374.79079163 306.24920268 -374.89693343 330.62459016 -375 355 C-402.06 355 -429.12 355 -457 355 C-457 240.49 -457 125.98 -457 8 C-434.56 8 -412.12 8 -389 8 C-388.01 14.435 -388.01 14.435 -387 21 C-386.3345843 23.96522835 -385.65469831 26.88141189 -384.875 29.8125 C-384.69324219 30.51697266 -384.51148437 31.22144531 -384.32421875 31.94726562 C-383.88845601 33.63297937 -383.44512545 35.31673433 -383 37 C-382.01 37 -381.02 37 -380 37 C-379.76410156 36.41476562 -379.52820312 35.82953125 -379.28515625 35.2265625 C-369.91104817 18.98570656 -336.34438368 7.44462156 -319.453125 2.83984375 C-317.74382813 2.42412109 -317.74382813 2.42412109 -316 2 C-315.33806641 1.82098145 -314.67613281 1.64196289 -313.99414062 1.45751953 C-287.13512375 -5.61535491 -254.57120055 -4.86595149 -228 3 C-226.72564087 3.34816772 -226.72564087 3.34816772 -225.42553711 3.70336914 C-220.08852021 5.20253119 -215.38144542 7.085505 -210.5625 9.8125 C-209.92924805 10.16143311 -209.29599609 10.51036621 -208.64355469 10.86987305 C-207.36671521 11.57380888 -206.09175945 12.28117393 -204.81884766 12.9921875 C-201.30004605 14.94193422 -197.72809273 16.79529642 -194.171875 18.67578125 C-192.09828071 19.94007705 -190.70104159 21.2941802 -189 23 C-188.01 23.33 -187.02 23.66 -186 24 C-184.28852812 25.6206232 -182.62997166 27.29742902 -181 29 C-179.95093444 30.04340753 -178.8987132 31.08364956 -177.84375 32.12109375 C-176.7291345 33.22653007 -175.61455161 34.33199927 -174.5 35.4375 C-173.94441406 35.98470703 -173.38882813 36.53191406 -172.81640625 37.09570312 C-169.31747438 40.57405304 -166.10217429 44.16279561 -163 48 C-159.2926652 46.43084899 -156.79108136 44.12104746 -153.875 41.375 C-145.79078977 33.89178073 -137.61430338 27.40320754 -128 22 C-127.27167969 21.58105469 -126.54335937 21.16210938 -125.79296875 20.73046875 C-113.13603264 13.54680231 -100.21157192 7.3472566 -86 4 C-85.34499512 3.84063965 -84.68999023 3.6812793 -84.01513672 3.51708984 C-56.05736133 -3.23464109 -28.41678856 -5.56784759 0 0 Z " fill="#014263" transform="translate(2939,561)"/>
<path d="M0 0 C7.47024086 -0.08398077 14.93602915 -0.07966422 22.40625 0.00439453 C24.39934101 0.02667353 26.3925315 0.04297214 28.38574219 0.04736328 C60.49015319 0.181551 93.51337693 10.25832797 122.28857422 23.91650391 C123.16964844 24.32513672 124.05072266 24.73376953 124.95849609 25.15478516 C130.18944898 27.63321449 134.96749368 30.40488034 139.73217773 33.68945312 C142.2040981 35.3656494 144.76847768 36.78267164 147.41357422 38.16650391 C151.34959403 40.27824487 155.16075451 42.34342412 158.72607422 45.04150391 C158.72607422 45.70150391 158.72607422 46.36150391 158.72607422 47.04150391 C159.26619141 47.28384766 159.80630859 47.52619141 160.36279297 47.77587891 C169.4324286 52.63300608 178.85744718 60.34864162 185.72607422 68.04150391 C185.72607422 68.70150391 185.72607422 69.36150391 185.72607422 70.04150391 C187.04607422 70.70150391 188.36607422 71.36150391 189.72607422 72.04150391 C189.72607422 76.04150391 189.72607422 76.04150391 188.40576172 77.49853516 C187.81021484 77.94583984 187.21466797 78.39314453 186.60107422 78.85400391 C184.02843272 80.90593039 181.8659901 82.92658659 179.78857422 85.47900391 C177.02143124 88.83804913 173.90847873 91.54736473 170.59716797 94.35791016 C168.51080932 96.15457288 168.51080932 96.15457288 166.22607422 99.04150391 C163.59574406 102.1979001 160.75086161 104.66966986 157.63232422 107.32275391 C155.51655138 109.14870919 155.51655138 109.14870919 153.22607422 112.04150391 C151.15925566 114.52168618 149.22828445 116.40824796 146.78857422 118.47900391 C142.99057791 121.70766111 139.87625666 125.18253041 136.72607422 129.04150391 C134.78857422 128.72900391 134.78857422 128.72900391 132.72607422 128.04150391 C132.39607422 127.05150391 132.06607422 126.06150391 131.72607422 125.04150391 C130.73607422 124.71150391 129.74607422 124.38150391 128.72607422 124.04150391 C127.36347509 122.40638495 126.00168997 120.77058071 124.64404297 119.13134766 C115.11333929 108.7465687 102.27694439 100.31693899 89.72607422 94.04150391 C89.72607422 93.38150391 89.72607422 92.72150391 89.72607422 92.04150391 C88.48857422 91.64962891 87.25107422 91.25775391 85.97607422 90.85400391 C82.14492848 89.58297914 78.44151308 88.11818373 74.72607422 86.54150391 C70.53450056 84.76855293 66.36454514 83.15011978 62.02294922 81.78759766 C60.41303594 81.26464963 58.81959982 80.68946118 57.24169922 80.07666016 C22.62546845 67.12002011 -20.4287735 72.31910728 -53.65283203 86.83447266 C-57.92126575 88.80011501 -62.12655634 90.83042559 -66.27392578 93.04150391 C-67.16208984 93.50814453 -68.05025391 93.97478516 -68.96533203 94.45556641 C-88.5669817 105.28314432 -104.91046194 120.23820504 -118.27392578 138.04150391 C-119.01642578 138.94126953 -119.75892578 139.84103516 -120.52392578 140.76806641 C-122.444202 143.00552191 -122.444202 143.00552191 -123.27392578 146.04150391 C-123.93392578 146.04150391 -124.59392578 146.04150391 -125.27392578 146.04150391 C-125.52271484 146.72599609 -125.77150391 147.41048828 -126.02783203 148.11572266 C-127.48453851 151.53601466 -129.31859414 154.66471223 -131.21142578 157.85400391 C-134.10377142 162.82224499 -136.4556614 167.58671075 -138.27392578 173.04150391 C-138.95160558 174.77454277 -139.63965707 176.50355122 -140.33642578 178.22900391 C-140.65740234 179.02693359 -140.97837891 179.82486328 -141.30908203 180.64697266 C-141.94747667 182.23132858 -142.60095341 183.80969823 -143.27001953 185.38134766 C-147.33341598 196.14855769 -149.02616508 207.66340876 -150.27392578 219.04150391 C-150.36077637 219.7247876 -150.44762695 220.40807129 -150.53710938 221.11206055 C-153.4637842 244.90114544 -150.93010596 269.38595186 -143.27392578 292.04150391 C-142.96712891 293.07919922 -142.66033203 294.11689453 -142.34423828 295.18603516 C-136.87507018 313.26332972 -126.397573 330.68578986 -114.27392578 345.04150391 C-113.58814453 345.92193359 -112.90236328 346.80236328 -112.19580078 347.70947266 C-103.72166931 358.5155144 -94.15327431 366.82756055 -82.69580078 374.26416016 C-81.89658203 374.85068359 -81.09736328 375.43720703 -80.27392578 376.04150391 C-80.27392578 376.70150391 -80.27392578 377.36150391 -80.27392578 378.04150391 C-79.28392578 378.38181641 -79.28392578 378.38181641 -78.27392578 378.72900391 C-75.27392578 380.04150391 -75.27392578 380.04150391 -72.02392578 382.16650391 C-37.79665095 404.05377453 8.25296783 409.46473439 47.72607422 402.04150391 C68.59176696 397.4425645 94.62806394 389.8199303 109.83154297 373.82666016 C111.72607422 372.04150391 111.72607422 372.04150391 114.72607422 372.04150391 C114.99033203 371.44853516 115.25458984 370.85556641 115.52685547 370.24462891 C116.76977847 367.96121336 118.03009068 366.56723667 119.91357422 364.79150391 C136.51819025 348.52995846 146.11765333 327.98211527 152.41357422 305.85400391 C152.62836426 305.10538086 152.8431543 304.35675781 153.06445312 303.58544922 C153.26603027 302.85551758 153.46760742 302.12558594 153.67529297 301.37353516 C153.85406982 300.73134033 154.03284668 300.08914551 154.21704102 299.42749023 C154.94696206 296.00613848 155.29215766 292.51283636 155.72607422 289.04150391 C106.22607422 289.04150391 56.72607422 289.04150391 5.72607422 289.04150391 C6.05607422 268.58150391 6.38607422 248.12150391 6.72607422 227.04150391 C83.94607422 227.04150391 161.16607422 227.04150391 240.72607422 227.04150391 C240.72607422 287.69359273 240.72607422 287.69359273 231.38378906 314.09155273 C230.52879566 316.62638285 229.94232306 319.2161368 229.31591797 321.81494141 C227.18145011 329.87220417 224.1847904 337.47779282 220.72607422 345.04150391 C220.37335449 345.81341064 220.02063477 346.58531738 219.65722656 347.38061523 C215.43424983 356.551408 211.14676972 365.50679184 205.72607422 374.04150391 C204.37106566 376.36316966 203.04883033 378.70124309 201.72607422 381.04150391 C201.06607422 381.04150391 200.40607422 381.04150391 199.72607422 381.04150391 C199.33742188 382.12238281 199.33742188 382.12238281 198.94091797 383.22509766 C195.11609548 392.09229062 187.86505601 399.29699967 181.31982422 406.26025391 C179.19675332 408.53679981 177.16649454 410.84817408 175.16357422 413.22900391 C171.10760898 417.90517742 166.58401862 422.20488237 161.72607422 426.04150391 C161.06607422 426.04150391 160.40607422 426.04150391 159.72607422 426.04150391 C159.41863281 426.89615234 159.41863281 426.89615234 159.10498047 427.76806641 C157.2315678 430.85680911 154.62401529 432.47687564 151.66357422 434.41650391 C151.07793701 434.8100708 150.4922998 435.2036377 149.88891602 435.60913086 C148.71256254 436.39826058 147.53364032 437.18357596 146.35205078 437.96484375 C144.96695145 438.88200412 143.59153859 439.8137657 142.21826172 440.74853516 C140.07092522 442.20703073 137.90530386 443.63117979 135.72607422 445.04150391 C135.03126953 445.49783203 134.33646484 445.95416016 133.62060547 446.42431641 C113.43154612 459.14238133 89.97389808 468.04749496 66.72607422 473.04150391 C65.74993164 473.26016113 64.77378906 473.47881836 63.76806641 473.70410156 C22.29147386 482.68131277 -22.80267325 480.70807913 -63.27392578 468.04150391 C-65.31350176 467.5125427 -67.35494743 466.99068996 -69.39892578 466.47900391 C-73.24782538 465.43671491 -76.50921318 464.02096124 -80.00439453 462.12744141 C-82.89369872 460.74495162 -85.85896593 459.79918804 -88.89892578 458.79150391 C-95.56965722 456.49125169 -101.29561907 453.37612538 -107.31298828 449.71337891 C-109.75288705 448.3357052 -111.54533239 447.4940511 -114.27392578 447.04150391 C-114.27392578 446.38150391 -114.27392578 445.72150391 -114.27392578 445.04150391 C-115.60423828 444.67025391 -115.60423828 444.67025391 -116.96142578 444.29150391 C-120.46139639 442.97076028 -122.38834457 441.3902328 -125.27392578 439.04150391 C-126.72083942 438.22915353 -128.18047489 437.43924202 -129.64892578 436.66650391 C-133.31933696 434.6803768 -136.26574919 432.48181213 -139.34814453 429.68994141 C-141.61813126 427.7468696 -144.01479095 426.06909842 -146.46142578 424.35400391 C-151.85787069 420.484575 -156.65628434 416.17943497 -161.48486328 411.64306641 C-163.80568356 409.47826766 -166.16392154 407.40237622 -168.58642578 405.35400391 C-176.65081368 398.31629372 -182.83958971 389.53184471 -189.27392578 381.04150391 C-189.86689453 380.27193359 -190.45986328 379.50236328 -191.07080078 378.70947266 C-200.27392578 366.68373973 -200.27392578 366.68373973 -200.27392578 363.04150391 C-200.93392578 363.04150391 -201.59392578 363.04150391 -202.27392578 363.04150391 C-211.40718936 346.0683583 -211.40718936 346.0683583 -215.15673828 337.52197266 C-216.32066716 334.93772498 -217.59619961 332.43330921 -218.89892578 329.91650391 C-220.76205824 326.21916962 -222.23705191 322.58664229 -223.46142578 318.63525391 C-224.28870606 315.9943207 -225.19889022 313.3876123 -226.1105957 310.77490234 C-228.43538546 304.04268085 -230.22468759 297.36001271 -231.59814453 290.35791016 C-232.07938224 287.99622914 -232.64365895 285.65082894 -233.26293945 283.3215332 C-234.27077586 279.31093486 -234.76171196 275.36878393 -235.12548828 271.24462891 C-235.18924652 270.52974304 -235.25300476 269.81485718 -235.31869507 269.07830811 C-235.45109557 267.5760772 -235.58034182 266.07356519 -235.70654297 264.57080078 C-235.89734976 262.3101762 -236.10049097 260.05090937 -236.30517578 257.79150391 C-237.5206771 244.02026945 -237.32592322 230.61359563 -236.14892578 216.85400391 C-236.08623505 216.11527039 -236.02354431 215.37653687 -235.95895386 214.61541748 C-233.32405421 184.58022919 -223.71603857 155.92572948 -210.27392578 129.04150391 C-209.61392578 129.04150391 -208.95392578 129.04150391 -208.27392578 129.04150391 C-208.06767578 128.07212891 -207.86142578 127.10275391 -207.64892578 126.10400391 C-206.23278466 121.10704881 -203.23907754 117.23385962 -200.27392578 113.04150391 C-198.50255816 110.39940072 -196.74202955 107.75042047 -194.98925781 105.09594727 C-193.59290025 102.9884863 -192.18422274 100.88965687 -190.77392578 98.79150391 C-190.30083984 98.07220703 -189.82775391 97.35291016 -189.34033203 96.61181641 C-188.87498047 95.92345703 -188.40962891 95.23509766 -187.93017578 94.52587891 C-187.51574219 93.90422852 -187.10130859 93.28257812 -186.67431641 92.64208984 C-185.05531093 90.79163659 -183.47731861 90.08108687 -181.27392578 89.04150391 C-180.57831282 87.72304085 -179.91693497 86.38640591 -179.27392578 85.04150391 C-177.62204845 83.09031205 -175.95867197 81.21497442 -174.21142578 79.35400391 C-173.7211792 78.82653564 -173.23093262 78.29906738 -172.72583008 77.75561523 C-163.94631407 68.35864501 -154.82358926 59.71820687 -144.64892578 51.85400391 C-144.11041992 51.43771729 -143.57191406 51.02143066 -143.01708984 50.5925293 C-139.5266073 47.92443693 -135.94775226 45.44899177 -132.27392578 43.04150391 C-131.31357422 42.39052734 -130.35322266 41.73955078 -129.36376953 41.06884766 C-116.07284395 32.25763925 -101.97276369 24.38053424 -86.92236328 19.02197266 C-84.52165272 18.13321403 -82.34323963 17.11627253 -80.08642578 15.91650391 C-75.651579 13.6213564 -71.07308621 12.36945692 -66.27392578 11.04150391 C-65.05576172 10.67154297 -63.83759766 10.30158203 -62.58251953 9.92041016 C-42.12064955 3.80027018 -21.3335613 0.27044783 0 0 Z " fill="#014263" transform="translate(1448.27392578125,446.95849609375)"/>
<path d="M0 0 C0.76745544 -0.00133942 1.53491089 -0.00267883 2.32562256 -0.00405884 C16.54742564 0.00128895 30.43218187 1.09761622 44.5 3.25 C45.30518066 3.36746582 46.11036133 3.48493164 46.93994141 3.60595703 C78.51426662 8.27784189 107.57203357 19.11082712 132.5 39.25 C133.2528125 39.83523438 134.005625 40.42046875 134.78125 41.0234375 C140.77821726 45.90192277 145.03352024 51.9917846 149.5 58.25 C149.99628906 58.90226563 150.49257812 59.55453125 151.00390625 60.2265625 C154.53242657 64.89438561 157.04504713 69.95247013 159.5 75.25 C159.850625 75.95125 160.20125 76.6525 160.5625 77.375 C168.28045613 94.25802903 168.07140741 113.61916197 167.95410156 131.7668457 C167.95297033 134.2526701 167.95361231 136.73849583 167.95587158 139.22431946 C167.95677476 144.52955115 167.94562484 149.83453649 167.92292023 155.13970375 C167.89011695 162.80960914 167.87996464 170.47941994 167.87496826 178.14938786 C167.86625944 190.5997278 167.83976515 203.04996165 167.80175781 215.50024414 C167.76492243 227.57934039 167.73666747 239.6584076 167.71972656 251.73754883 C167.71867567 252.48475452 167.71762477 253.23196021 167.71654204 254.0018085 C167.71132109 257.75111095 167.70626644 261.50041361 167.70129442 265.2497164 C167.65997013 296.24990375 167.58630781 327.2498959 167.5 358.25 C145.06 358.25 122.62 358.25 99.5 358.25 C97.24603175 348.10714286 97.24603175 348.10714286 96.68359375 344.56640625 C96.55960205 343.78821533 96.43561035 343.01002441 96.30786133 342.20825195 C96.18564209 341.41765381 96.06342285 340.62705566 95.9375 339.8125 C95.80819092 338.98645264 95.67888184 338.16040527 95.5456543 337.30932617 C94.67282506 331.63398163 93.96922655 325.9745639 93.5 320.25 C89.98404125 322.18033029 86.82372755 323.99101796 83.6875 326.5 C81.5 328.25 81.5 328.25 79.5 328.25 C79.5 328.91 79.5 329.57 79.5 330.25 C77.71118264 331.25508801 75.91885304 332.25392736 74.125 333.25 C72.62839844 334.0853125 72.62839844 334.0853125 71.1015625 334.9375 C68.5 336.25 68.5 336.25 66.5 336.25 C66.5 336.91 66.5 337.57 66.5 338.25 C65.35402344 338.78109375 64.20804688 339.3121875 63.02734375 339.859375 C61.4973224 340.57275919 59.9673786 341.28630973 58.4375 342 C57.68533203 342.34804688 56.93316406 342.69609375 56.15820312 343.0546875 C52.71594426 344.66405528 49.43922015 346.28698396 46.1875 348.265625 C41.31684285 351.10876365 35.92228438 352.58893809 30.5625 354.25 C29.44077393 354.60030273 28.31904785 354.95060547 27.16333008 355.31152344 C23.94650478 356.30587808 20.72502116 357.28259949 17.5 358.25 C16.75008789 358.47751953 16.00017578 358.70503906 15.22753906 358.93945312 C-28.85029856 372.04067438 -77.81357828 369.9944014 -118.5 348.25 C-119.16 347.92 -119.82 347.59 -120.5 347.25 C-120.5 346.59 -120.5 345.93 -120.5 345.25 C-121.03238281 345.18554688 -121.56476562 345.12109375 -122.11328125 345.0546875 C-125.54221063 343.89861638 -127.98288281 341.69798894 -130.6875 339.375 C-131.25976318 338.88757324 -131.83202637 338.40014648 -132.42163086 337.89794922 C-137.81299042 333.18570305 -142.17238076 327.95499291 -146.5 322.25 C-147.16902344 321.4559375 -147.83804688 320.661875 -148.52734375 319.84375 C-154.60795005 311.84865578 -158.37739817 301.72139891 -161.5 292.25 C-161.83257813 291.33347656 -162.16515625 290.41695312 -162.5078125 289.47265625 C-168.24060092 270.85237889 -168.98837673 249.32118538 -165.5 230.25 C-165.31566406 229.20714844 -165.13132812 228.16429687 -164.94140625 227.08984375 C-162.15370882 213.94784159 -155.46523452 203.08283787 -146.5 193.25 C-145.92507812 192.60546875 -145.35015625 191.9609375 -144.7578125 191.296875 C-134.92531257 180.85278416 -122.05284507 173.27350924 -108.67578125 168.42578125 C-106.46018301 167.60549211 -104.27179984 166.70947873 -102.109375 165.7578125 C-78.4468728 155.87282781 -51.77752028 154.22491493 -26.5 152.25 C-25.5812207 152.17652344 -24.66244141 152.10304688 -23.71582031 152.02734375 C-18.31240783 151.61322164 -12.91760277 151.37430446 -7.5 151.25 C-6.56446289 151.22808594 -5.62892578 151.20617187 -4.66503906 151.18359375 C24.71499776 150.62732925 54.14451981 152.17283794 83.5 153.25 C83.55553762 147.56047984 83.55696967 141.87418712 83.51220703 136.18457031 C83.5041882 134.25684269 83.50994567 132.32899909 83.53076172 130.40136719 C83.67108149 116.20691456 82.29950666 103.50905206 72.11328125 92.72265625 C70.06587428 90.87369421 70.06587428 90.87369421 67.96875 89.4140625 C67.4840625 89.02992188 66.999375 88.64578125 66.5 88.25 C66.5 87.59 66.5 86.93 66.5 86.25 C65.819375 85.99992188 65.13875 85.74984375 64.4375 85.4921875 C61.63846205 84.30855177 59.03590058 82.92357527 56.390625 81.43237305 C31.4970795 67.51011768 -0.80577598 65.69436724 -28.19824219 72.96630859 C-45.92215763 78.24846342 -62.36586475 86.21868361 -72.44140625 102.40234375 C-74.03325485 106.31617786 -74.03325485 106.31617786 -74.5 115.25 C-102.22 115.25 -129.94 115.25 -158.5 115.25 C-158.5 86.28872412 -148.68833049 64.13470995 -129.06640625 42.73828125 C-125.15811724 38.94896603 -120.89203976 35.70323548 -116.515625 32.4765625 C-114.61920566 31.07635651 -112.75049717 29.6369772 -110.92578125 28.14453125 C-103.40007989 22.2669706 -94.30826111 18.73905604 -85.5 15.25 C-84.7582251 14.94223633 -84.0164502 14.63447266 -83.25219727 14.31738281 C-65.03422662 6.83039946 -45.96327464 3.63438055 -26.5 1.25 C-25.695625 1.1454248 -24.89125 1.04084961 -24.0625 0.93310547 C-16.06862758 -0.0040956 -8.03763363 0.00831159 0 0 Z " fill="#024263" transform="translate(3293.5,557.75)"/>
<path d="M0 0 C1.30354431 -0.00646545 1.30354431 -0.00646545 2.63342285 -0.01306152 C15.47386618 -0.04037516 27.80067334 1.27490188 40.4375 3.5 C41.23994644 3.63926407 42.04239288 3.77852814 42.86915588 3.92201233 C55.86138725 6.18056431 55.86138725 6.18056431 61.4375 8.5 C63.355625 8.87125 63.355625 8.87125 65.3125 9.25 C97.85097429 16.24173828 125.77272641 38.79775274 144.37109375 65.45703125 C145.4375 67.5 145.4375 67.5 145.4375 71.5 C146.0975 71.5 146.7575 71.5 147.4375 71.5 C148.41923993 73.93192429 149.39473502 76.36591459 150.359375 78.8046875 C151.20735435 80.92463587 152.09622095 83.02823261 153 85.125 C162.06403956 110.42462689 159.39271642 142.71444078 148.296875 166.99609375 C147.38387622 168.85102437 146.41767594 170.67967325 145.4375 172.5 C144.7775 172.5 144.1175 172.5 143.4375 172.5 C143.128125 173.49 143.128125 173.49 142.8125 174.5 C140.94286694 178.57919941 138.47615394 182.19072803 135.4375 185.5 C134.4475 185.83 133.4575 186.16 132.4375 186.5 C132.31632812 187.09425781 132.19515625 187.68851563 132.0703125 188.30078125 C129.78611982 196.2390558 113.15732143 203.71975878 106.15380859 207.59423828 C102.04877773 209.76062015 97.88734466 211.21585411 93.4375 212.5 C92.7676709 212.70077148 92.0978418 212.90154297 91.40771484 213.10839844 C89.06928227 213.80274009 86.72414271 214.46785046 84.375 215.125 C83.30620605 215.4348584 83.30620605 215.4348584 82.21582031 215.75097656 C68.31298398 219.46041012 53.73302157 219.79930996 39.43115234 219.72705078 C37.82260648 219.7264845 36.2140601 219.72680745 34.60551453 219.72793579 C30.30295156 219.72850184 26.00050364 219.716871 21.69796705 219.70278788 C17.17768937 219.69015359 12.65740809 219.68910014 8.13711548 219.68673706 C-0.3940166 219.68055916 -8.92509647 219.66419913 -17.45620573 219.64403808 C-27.18073548 219.62156315 -36.90526793 219.61065671 -46.62981725 219.60064721 C-66.60740713 219.57982896 -86.58495026 219.54472598 -106.5625 219.5 C-105.62237075 221.89063862 -104.67848511 224.27967912 -103.73242188 226.66796875 C-103.46903015 227.3388855 -103.20563843 228.00980225 -102.93426514 228.7010498 C-100.73591307 234.23707674 -98.158675 239.40572448 -95.0625 244.5 C-94.55912109 245.33523193 -94.05574219 246.17046387 -93.53710938 247.03100586 C-87.89595998 256.05495073 -80.77531655 264.91098778 -72.15625 271.27734375 C-71.6303125 271.68082031 -71.104375 272.08429688 -70.5625 272.5 C-70.5625 273.16 -70.5625 273.82 -70.5625 274.5 C-69.5725 274.5 -68.5825 274.5 -67.5625 274.5 C-66.22034667 275.8244546 -64.88882208 277.15969209 -63.5625 278.5 C-61.39025211 279.89189897 -59.25001217 281.18871874 -57 282.4375 C-56.37867188 282.78522461 -55.75734375 283.13294922 -55.1171875 283.49121094 C-26.95722253 299.06014434 8.35507035 301.92021429 39.375 293.125 C46.37830264 291.03502529 53.03377516 288.61787323 59.25 284.75 C61.4375 283.5 61.4375 283.5 65.4375 283.5 C65.4375 282.84 65.4375 282.18 65.4375 281.5 C67.7734375 279.7734375 67.7734375 279.7734375 70.8125 277.875 C72.30910156 276.92753906 72.30910156 276.92753906 73.8359375 275.9609375 C76.4375 274.5 76.4375 274.5 78.4375 274.5 C78.67210937 273.91734375 78.90671875 273.3346875 79.1484375 272.734375 C80.72902924 269.99468266 82.53151497 268.63016031 85.0625 266.75 C85.87976562 266.13640625 86.69703125 265.5228125 87.5390625 264.890625 C88.16554688 264.43171875 88.79203125 263.9728125 89.4375 263.5 C94.61355129 267.78454631 99.25911365 272.31440802 103.8125 277.25 C104.46444336 277.95084717 105.11638672 278.65169434 105.78808594 279.3737793 C110.14268941 284.06571881 114.45231926 288.7957558 118.703125 293.58203125 C120.3906356 295.4990033 120.3906356 295.4990033 122.171875 297.13671875 C123.4375 298.5 123.4375 298.5 123.4375 300.5 C124.00855469 300.75007813 124.57960938 301.00015625 125.16796875 301.2578125 C127.76276745 302.67802934 129.6270481 304.31802649 131.75 306.375 C132.82701172 307.39207031 132.82701172 307.39207031 133.92578125 308.4296875 C135.4375 310.5 135.4375 310.5 135.39453125 312.50390625 C130.83086228 322.02241581 118.86570731 328.60604746 110.4375 334.5 C109.16132813 335.40105469 109.16132813 335.40105469 107.859375 336.3203125 C102.28461221 340.15045528 96.43327778 343.37952086 90.4375 346.5 C89.81891113 346.82291016 89.20032227 347.14582031 88.56298828 347.47851562 C80.3622184 351.73834327 72.25610068 355.66406234 63.4375 358.5 C62.52871094 358.81324219 61.61992188 359.12648438 60.68359375 359.44921875 C44.79699343 364.68951846 28.19218376 368.34377108 11.4375 368.5 C10.4690918 368.51369629 9.50068359 368.52739258 8.50292969 368.54150391 C1.80628033 368.62554108 -4.88540339 368.62111725 -11.58203125 368.53710938 C-13.3736163 368.51480261 -15.1653127 368.49852493 -16.95703125 368.49414062 C-36.03015932 368.40567528 -55.8232024 363.31082191 -73.5625 356.5 C-74.99529297 355.97019531 -74.99529297 355.97019531 -76.45703125 355.4296875 C-85.58942477 351.85668538 -94.16048695 347.09481276 -102.78173828 342.45214844 C-104.03250626 341.78338026 -105.29390348 341.13429826 -106.5625 340.5 C-106.5625 339.84 -106.5625 339.18 -106.5625 338.5 C-107.5525 338.1596875 -107.5525 338.1596875 -108.5625 337.8125 C-114.95634409 335.01519321 -119.65688527 331.4426662 -124.5625 326.5 C-126.33592141 325.01953316 -128.12802309 323.56117508 -129.9375 322.125 C-149.25473716 306.42328851 -149.25473716 306.42328851 -152.5625 296.5 C-153.5525 296.17 -154.5425 295.84 -155.5625 295.5 C-156.7734375 293.98120117 -156.7734375 293.98120117 -157.9375 292.04296875 C-158.36546875 291.34236328 -158.7934375 290.64175781 -159.234375 289.91992188 C-159.89179687 288.81487305 -159.89179687 288.81487305 -160.5625 287.6875 C-161.43590686 286.24252542 -162.31086355 284.79848629 -163.1875 283.35546875 C-163.80298706 282.33912354 -163.80298706 282.33912354 -164.4309082 281.30224609 C-165.70048132 279.28024205 -167.12152206 277.40209089 -168.5625 275.5 C-169.26307133 273.89869409 -169.95849993 272.29476596 -170.6171875 270.67578125 C-171.80041729 267.95239698 -173.14909454 265.33160892 -174.5 262.6875 C-177.16571837 257.38239135 -179.55053587 252.08595949 -181.5625 246.5 C-181.87832031 245.63117188 -182.19414063 244.76234375 -182.51953125 243.8671875 C-183.43541809 241.13047382 -184.24957349 238.38378943 -184.99755859 235.59667969 C-185.39210978 234.13237305 -185.80259772 232.67230868 -186.22509766 231.21582031 C-194.37778983 202.25245814 -194.17460084 166.3200225 -185.5625 137.5 C-185.32724609 136.68337891 -185.09199219 135.86675781 -184.84960938 135.02539062 C-183.30519958 129.76248453 -181.52871849 124.61921126 -179.5625 119.5 C-179.27584473 118.75218262 -178.98918945 118.00436523 -178.69384766 117.23388672 C-175.49964258 109.00649464 -172.10219773 101.08587928 -167.5625 93.5 C-166.62015475 91.81520092 -165.68261637 90.1277039 -164.75 88.4375 C-164.02083333 87.125 -163.29166667 85.8125 -162.5625 84.5 C-161.9025 84.5 -161.2425 84.5 -160.5625 84.5 C-160.16417969 83.40945313 -160.16417969 83.40945313 -159.7578125 82.296875 C-151.30719963 62.52354554 -127.32110044 41.45174578 -108.5625 31.5 C-107.9025 31.5 -107.2425 31.5 -106.5625 31.5 C-106.5625 30.84 -106.5625 30.18 -106.5625 29.5 C-95.71162777 23.23060716 -84.49468464 17.59561812 -72.9375 12.75 C-72.30650391 12.48074707 -71.67550781 12.21149414 -71.02539062 11.93408203 C-48.3929292 2.67482981 -24.21239876 0.02053639 0 0 Z " fill="#014263" transform="translate(1944.5625,557.5)"/>
<path d="M0 0 C27.06 0 54.12 0 82 0 C82 32.34 82 64.68 82 98 C115 98 148 98 182 98 C182 121.43 182 144.86 182 169 C139.1 169.33 96.2 169.66 52 170 C55.96 173.465 55.96 173.465 60 177 C63.0625 180.5625 63.0625 180.5625 64.50390625 182.31640625 C66.5547467 184.62427109 68.88648954 186.49507546 71.265625 188.453125 C73.65874209 190.58752673 75.63803238 192.98675949 77.640625 195.484375 C79.1188998 197.25912951 79.1188998 197.25912951 82 199 C82.3707943 201.15243149 82.3707943 201.15243149 82.36508179 203.87591553 C82.37039413 204.90705475 82.37570648 205.93819397 82.38117981 207.00057983 C82.3718895 208.13701935 82.36259918 209.27345886 82.35302734 210.44433594 C82.35518753 211.63823944 82.35734772 212.83214294 82.35957336 214.06222534 C82.36267018 216.66628468 82.36040249 219.2697304 82.34955978 221.87371063 C82.33317056 226.01341463 82.34168401 230.15283817 82.35440063 234.2925415 C82.38449654 245.33185589 82.38326648 256.37112334 82.36414778 267.41045785 C82.35170254 274.64483737 82.35400944 281.87889757 82.38253558 289.11324143 C82.39511432 292.54249375 82.39841951 295.97115658 82.37784958 299.400383 C82.25194681 324.44218462 83.42228667 347.70943828 101.5 366.62109375 C115.2600174 379.71461031 133.76440969 379.10226349 151.609375 379.31640625 C153.53740967 379.34438293 153.53740967 379.34438293 155.50439453 379.3729248 C160.25286751 379.44062797 165.00144065 379.50115355 169.75 379.5625 C180.3925 379.706875 191.035 379.85125 202 380 C202 402.44 202 424.88 202 448 C181.5400507 448.12032643 181.5400507 448.12032643 172.65039062 448.14648438 C166.64322716 448.16424593 160.63620399 448.18498457 154.62915039 448.22631836 C86.65199476 448.68135731 86.65199476 448.68135731 60 435 C58.27545465 434.2188824 56.54647622 433.44745254 54.8125 432.6875 C54.07644531 432.36136719 53.34039063 432.03523438 52.58203125 431.69921875 C52.05996094 431.46847656 51.53789062 431.23773437 51 431 C51 430.34 51 429.68 51 429 C50.01 428.690625 50.01 428.690625 49 428.375 C44.86937642 426.48179753 41.56078518 423.79263192 38 421 C37.01 420.278125 36.02 419.55625 35 418.8125 C34.34 418.214375 33.68 417.61625 33 417 C33 416.01 33 415.02 33 414 C32.42636719 413.78085937 31.85273438 413.56171875 31.26171875 413.3359375 C28.28084854 411.57521623 26.81952514 409.43408209 24.8125 406.625 C24.11769531 405.66851563 23.42289063 404.71203125 22.70703125 403.7265625 C21.2225052 401.35539731 20.43268653 399.72527937 20 397 C19.34 397 18.68 397 18 397 C13.7584945 388.83867621 9.77564415 380.79758514 7 372 C6.49339844 370.48212891 6.49339844 370.48212891 5.9765625 368.93359375 C-1.25153277 345.04827142 -0.42883103 319.444883 -0.30418181 294.75177979 C-0.28508599 290.31164153 -0.28363925 285.87149319 -0.28010559 281.43132019 C-0.27087968 273.0704514 -0.24639789 264.70970405 -0.21605712 256.3488881 C-0.18221371 246.81037124 -0.16595283 237.27184776 -0.15097082 227.73328555 C-0.11983669 208.15544141 -0.06494724 188.57776317 0 169 C-20.13 169 -40.26 169 -61 169 C-61 145.57 -61 122.14 -61 98 C-51.47125 97.9690625 -51.47125 97.9690625 -41.75 97.9375 C-38.8123877 97.92384399 -38.8123877 97.92384399 -35.81542969 97.90991211 C-34.18424548 97.90697947 -32.55306051 97.90443416 -30.921875 97.90234375 C-29.7474585 97.8946698 -29.7474585 97.8946698 -28.54931641 97.88684082 C-18.99395364 97.88544953 -9.58455892 98.52077205 0 99 C0 66.33 0 33.66 0 0 Z " fill="#014263" transform="translate(2207,471)"/>
<path d="M0 0 C1.2304454 -0.00618599 1.2304454 -0.00618599 2.48574829 -0.01249695 C3.3819841 -0.00171112 4.27821991 0.00907471 5.20161438 0.02018738 C6.1481488 0.0197493 7.09468323 0.01931122 8.06990051 0.01885986 C11.2029625 0.02095226 14.33549141 0.04430482 17.46846008 0.0677948 C19.63893339 0.07338914 21.80941047 0.07766 23.97988892 0.08065796 C29.69611547 0.09211942 35.41211381 0.12159794 41.12825012 0.1547699 C46.95972099 0.18544267 52.79122869 0.19915733 58.62275696 0.21427917 C70.06751876 0.24646627 81.51211108 0.29767844 92.95674133 0.36076355 C92.95674133 1.02076355 92.95674133 1.68076355 92.95674133 2.36076355 C92.29674133 2.36076355 91.63674133 2.36076355 90.95674133 2.36076355 C90.69119446 3.09166199 90.42564758 3.82256042 90.15205383 4.5756073 C88.96200197 7.34850593 87.6031221 9.48864487 85.83174133 11.92326355 C82.27013717 16.87366934 78.94691727 21.95369146 75.65596008 27.08732605 C74.8148468 28.21267761 74.8148468 28.21267761 73.95674133 29.36076355 C73.29674133 29.36076355 72.63674133 29.36076355 71.95674133 29.36076355 C71.61642883 30.35076355 71.61642883 30.35076355 71.26924133 31.36076355 C69.56885984 35.24734983 67.56051049 38.99756172 64.95674133 42.36076355 C64.29674133 42.36076355 63.63674133 42.36076355 62.95674133 42.36076355 C62.70666321 43.06201355 62.45658508 43.76326355 62.19892883 44.48576355 C60.80001621 47.72349843 59.05651917 50.43958275 57.08174133 53.36076355 C56.40369446 54.37138855 55.72564758 55.38201355 55.02705383 56.42326355 C53.09732225 59.16129779 51.05979106 61.75517784 48.95674133 64.36076355 C43.12400797 72.3738282 37.21507322 80.57959703 32.34736633 89.2162323 C31.88846008 89.92392761 31.42955383 90.63162292 30.95674133 91.36076355 C30.29674133 91.36076355 29.63674133 91.36076355 28.95674133 91.36076355 C28.70279602 92.07877136 28.44885071 92.79677917 28.18721008 93.5365448 C26.86309314 96.57570846 25.25966983 98.90087633 23.26924133 101.54826355 C19.40180489 106.75603898 15.66158418 112.03664157 11.95674133 117.36076355 C10.83208369 118.96517026 9.70707912 120.56933383 8.58174133 122.17326355 C7.37292317 123.90209132 6.16463017 125.63128635 4.95674133 127.36076355 C4.20908508 128.42939636 3.46142883 129.49802917 2.69111633 130.5990448 C1.90420277 131.72763378 1.11774616 132.85654149 0.33174133 133.98576355 C-0.05231873 134.53683777 -0.43637878 135.08791199 -0.83207703 135.65568542 C-2.98870944 138.77056208 -5.03181753 141.92502832 -6.98075867 145.17326355 C-7.66138367 146.22513855 -8.34200867 147.27701355 -9.04325867 148.36076355 C-9.70325867 148.36076355 -10.36325867 148.36076355 -11.04325867 148.36076355 C-11.31138367 149.08650574 -11.57950867 149.81224792 -11.85575867 150.5599823 C-13.02996248 153.32940379 -14.38269107 155.66995789 -16.04325867 158.17326355 C-16.55888367 158.96345886 -17.07450867 159.75365417 -17.60575867 160.5677948 C-18.08013367 161.15947449 -18.55450867 161.75115417 -19.04325867 162.36076355 C-19.70325867 162.36076355 -20.36325867 162.36076355 -21.04325867 162.36076355 C-22.62023123 164.91185035 -22.62023123 164.91185035 -23.04325867 168.36076355 C-21.71099967 170.65761266 -20.17841169 172.53672188 -18.42607117 174.5287323 C-17.04325867 176.36076355 -17.04325867 176.36076355 -17.04325867 179.36076355 C-16.38325867 179.36076355 -15.72325867 179.36076355 -15.04325867 179.36076355 C-13.31669617 181.69670105 -13.31669617 181.69670105 -11.41825867 184.73576355 C-10.78661804 185.73349792 -10.15497742 186.7312323 -9.50419617 187.75920105 C-8.04325867 190.36076355 -8.04325867 190.36076355 -8.04325867 192.36076355 C-7.38325867 192.36076355 -6.72325867 192.36076355 -6.04325867 192.36076355 C-4.66404296 194.39973395 -3.40149181 196.42334325 -2.16825867 198.54826355 C0.28567865 202.73301977 2.87285442 206.60619392 5.95674133 210.36076355 C6.93481973 211.76387077 7.89403318 213.18036128 8.83174133 214.61076355 C9.60131165 215.77672058 9.60131165 215.77672058 10.38642883 216.9662323 C11.41270816 218.53118063 12.43875959 220.09627846 13.46455383 221.6615448 C15.88640153 225.33235584 18.34960137 228.92746902 21.01924133 232.42326355 C28.95674133 242.87395616 28.95674133 242.87395616 28.95674133 246.36076355 C29.61674133 246.36076355 30.27674133 246.36076355 30.95674133 246.36076355 C32.68330383 248.69670105 32.68330383 248.69670105 34.58174133 251.73576355 C35.52920227 253.23236511 35.52920227 253.23236511 36.49580383 254.75920105 C37.95674133 257.36076355 37.95674133 257.36076355 37.95674133 259.36076355 C38.61674133 259.36076355 39.27674133 259.36076355 39.95674133 259.36076355 C41.02056169 260.98743623 42.00827368 262.66424155 42.95674133 264.36076355 C44.09496854 266.19882883 45.24102954 268.03206245 46.39424133 269.86076355 C46.97045227 270.77857605 47.54666321 271.69638855 48.14033508 272.64201355 C49.9471212 275.34636438 51.91260765 277.83324755 53.95674133 280.36076355 C54.89328694 281.70125878 55.81064455 283.05539817 56.70674133 284.42326355 C58.49247956 287.14308024 60.29006741 289.85052424 62.12080383 292.54045105 C63.2152179 294.15306824 63.2152179 294.15306824 64.33174133 295.79826355 C65.02010071 296.80759949 65.70846008 297.81693542 66.41767883 298.8568573 C67.95674133 301.36076355 67.95674133 301.36076355 67.95674133 303.36076355 C68.61674133 303.36076355 69.27674133 303.36076355 69.95674133 303.36076355 C71.68330383 305.69670105 71.68330383 305.69670105 73.58174133 308.73576355 C74.52920227 310.23236511 74.52920227 310.23236511 75.49580383 311.75920105 C76.95674133 314.36076355 76.95674133 314.36076355 76.95674133 316.36076355 C77.61674133 316.36076355 78.27674133 316.36076355 78.95674133 316.36076355 C80.68330383 318.69670105 80.68330383 318.69670105 82.58174133 321.73576355 C83.52920227 323.23236511 83.52920227 323.23236511 84.49580383 324.75920105 C85.95674133 327.36076355 85.95674133 327.36076355 85.95674133 329.36076355 C86.61674133 329.36076355 87.27674133 329.36076355 87.95674133 329.36076355 C88.28674133 331.01076355 88.61674133 332.66076355 88.95674133 334.36076355 C89.61674133 334.36076355 90.27674133 334.36076355 90.95674133 334.36076355 C92.68330383 336.69670105 92.68330383 336.69670105 94.58174133 339.73576355 C95.52920227 341.23236511 95.52920227 341.23236511 96.49580383 342.75920105 C97.95674133 345.36076355 97.95674133 345.36076355 97.95674133 347.36076355 C85.26567445 347.52290859 72.5748537 347.6473104 59.88296223 347.72344875 C53.98962143 347.75999059 48.09698891 347.80955985 42.20405579 347.88883972 C36.51762109 347.96486328 30.83186786 348.00674667 25.14496422 348.02490425 C22.974731 348.03784476 20.80453536 348.06311516 18.63459206 348.10087395 C15.59572725 348.15165259 12.5596824 348.15868895 9.52046204 348.15544128 C8.62206604 348.18060822 7.72367004 348.20577515 6.79804993 348.23170471 C0.84125747 348.16276562 0.84125747 348.16276562 -1.74334145 345.81927681 C-5.04325867 341.37299827 -5.04325867 341.37299827 -5.04325867 338.36076355 C-5.70325867 338.36076355 -6.36325867 338.36076355 -7.04325867 338.36076355 C-8.36777397 336.43067031 -9.60216397 334.43842958 -10.79325867 332.42326355 C-11.51466883 331.21939097 -12.2373311 330.01626783 -12.96122742 328.81388855 C-13.316203 328.22156433 -13.67117859 327.62924011 -14.03691101 327.01896667 C-17.86815517 320.70605781 -22.19192245 314.70382715 -26.42997742 308.6615448 C-26.96236023 307.90228699 -27.49474304 307.14302917 -28.04325867 306.36076355 C-28.70261414 305.42297058 -28.70261414 305.42297058 -29.37528992 304.4662323 C-32.04325867 300.59154977 -32.04325867 300.59154977 -32.04325867 298.36076355 C-32.70325867 298.36076355 -33.36325867 298.36076355 -34.04325867 298.36076355 C-35.36777397 296.43067031 -36.60216397 294.43842958 -37.79325867 292.42326355 C-38.51466883 291.21939097 -39.2373311 290.01626783 -39.96122742 288.81388855 C-40.316203 288.22156433 -40.67117859 287.62924011 -41.03691101 287.01896667 C-44.85964561 280.72007939 -49.16364657 274.7224247 -53.42997742 268.72013855 C-58.04325867 261.97335435 -58.04325867 261.97335435 -58.04325867 259.36076355 C-58.70325867 259.36076355 -59.36325867 259.36076355 -60.04325867 259.36076355 C-61.54979147 257.24257843 -62.93380805 255.13335632 -64.29325867 252.92326355 C-65.1052187 251.63125738 -65.91771899 250.33959058 -66.73075867 249.04826355 C-67.12650085 248.41533386 -67.52224304 247.78240417 -67.92997742 247.1302948 C-71.08956314 242.10821645 -74.40917634 237.20659365 -77.91825867 232.42326355 C-80.04325867 229.36076355 -80.04325867 229.36076355 -80.04325867 227.36076355 C-80.70325867 227.36076355 -81.36325867 227.36076355 -82.04325867 227.36076355 C-82.43964539 228.45517761 -82.43964539 228.45517761 -82.84403992 229.57170105 C-84.04808295 232.37198355 -85.43606758 234.52987048 -87.23075867 236.98576355 C-90.46302423 241.49073368 -93.44999492 246.10386723 -96.36747742 250.8177948 C-98.04325867 253.36076355 -98.04325867 253.36076355 -100.05497742 255.85295105 C-102.66475499 259.14465479 -104.61806613 262.6968856 -106.67607117 266.3490448 C-107.35282898 267.34484558 -107.35282898 267.34484558 -108.04325867 268.36076355 C-108.70325867 268.36076355 -109.36325867 268.36076355 -110.04325867 268.36076355 C-110.30880554 269.08006042 -110.57435242 269.7993573 -110.84794617 270.54045105 C-114.32134465 278.73585531 -120.11886749 285.97856059 -125.44169617 293.04826355 C-127.19507957 295.34927855 -127.19507957 295.34927855 -128.04325867 298.36076355 C-128.70325867 298.36076355 -129.36325867 298.36076355 -130.04325867 298.36076355 C-130.27013367 299.02076355 -130.49700867 299.68076355 -130.73075867 300.36076355 C-132.43114016 304.24734983 -134.43948951 307.99756172 -137.04325867 311.36076355 C-137.70325867 311.36076355 -138.36325867 311.36076355 -139.04325867 311.36076355 C-139.31911804 312.10197449 -139.59497742 312.84318542 -139.87919617 313.6068573 C-140.95085357 316.14215417 -142.11131919 318.16613621 -143.66825867 320.42326355 C-144.4629657 321.58728699 -144.4629657 321.58728699 -145.27372742 322.77482605 C-145.85767273 323.62818542 -146.44161804 324.4815448 -147.04325867 325.36076355 C-148.35749275 327.33877915 -149.66991533 329.31799925 -150.98075867 331.29826355 C-152.32419166 333.32624839 -153.68010601 335.3459808 -155.04325867 337.36076355 C-155.36609833 338.17717819 -155.68893799 338.99359283 -156.02156067 339.83474731 C-157.66045556 343.22275313 -159.03974031 345.04940164 -162.04325867 347.36076355 C-169.05360895 349.29162353 -176.75526623 348.51884335 -183.94560242 348.33732605 C-186.11032847 348.31866348 -188.2750969 348.30443421 -190.43988037 348.29444885 C-196.12425863 348.25635501 -201.80606161 348.15820561 -207.48942566 348.04740906 C-213.29412497 347.94491708 -219.09924251 347.89939873 -224.90458679 347.8490448 C-236.2852726 347.74195361 -247.6640511 347.57139321 -259.04325867 347.36076355 C-257.59762149 343.55798936 -256.04124089 340.86035194 -253.41825867 337.73576355 C-248.1994854 331.37186377 -243.42306887 324.72345321 -238.66825867 318.00920105 C-237.83525004 316.83449156 -237.00191161 315.66001588 -236.16825867 314.48576355 C-235.75108582 313.89803162 -235.33391296 313.31029968 -234.90409851 312.70475769 C-231.5605635 308.02240006 -228.07377165 303.46479899 -224.53007507 298.93278503 C-221.51422526 295.05052654 -218.78171483 291.05355448 -216.19950867 286.8724823 C-215.81794617 286.37361511 -215.43638367 285.87474792 -215.04325867 285.36076355 C-214.38325867 285.36076355 -213.72325867 285.36076355 -213.04325867 285.36076355 C-212.79833679 284.65177917 -212.55341492 283.9427948 -212.30107117 283.21232605 C-210.87355626 279.97603449 -209.08189782 277.53266294 -206.91825867 274.73576355 C-206.12032898 273.69291199 -205.32239929 272.65006042 -204.50028992 271.5756073 C-204.09246277 271.04435242 -203.68463562 270.51309753 -203.26445007 269.96574402 C-201.34056492 267.43723123 -199.47302338 264.86873947 -197.60575867 262.29826355 C-196.96767273 261.42041199 -196.32958679 260.54256042 -195.67216492 259.6381073 C-194.43016587 257.90169136 -193.22747564 256.13708901 -192.04325867 254.36076355 C-191.38325867 254.36076355 -190.72325867 254.36076355 -190.04325867 254.36076355 C-189.95818054 253.81033386 -189.87310242 253.25990417 -189.78544617 252.6927948 C-188.80319882 249.60647024 -187.15615922 247.60565163 -185.16825867 245.04826355 C-184.34700979 243.97997232 -183.52674224 242.91092617 -182.70732117 241.8412323 C-182.27322937 241.27710632 -181.83913757 240.71298035 -181.39189148 240.13175964 C-179.06384233 237.07461473 -176.80678327 233.96580914 -174.54325867 230.86076355 C-171.1435806 226.20598384 -167.70976921 221.58156571 -164.23075867 216.98576355 C-161.02340064 212.74377391 -158.04441186 208.4224456 -155.23466492 203.90763855 C-154.84150085 203.3971698 -154.44833679 202.88670105 -154.04325867 202.36076355 C-153.38325867 202.36076355 -152.72325867 202.36076355 -152.04325867 202.36076355 C-151.79318054 201.64920105 -151.54310242 200.93763855 -151.28544617 200.20451355 C-149.91305233 197.06268113 -148.21398377 194.60898294 -146.16825867 191.86076355 C-145.49021179 190.94295105 -144.81216492 190.02513855 -144.11357117 189.07951355 C-142.76470557 187.30817307 -141.39569936 185.55193468 -140.00419617 183.81388855 C-135.40413376 178.05922881 -131.1872446 172.00248956 -126.96122742 165.97013855 C-126.42755554 165.20926941 -125.89388367 164.44840027 -125.34403992 163.66447449 C-124.28265235 162.14884903 -123.22397947 160.63131824 -122.16825867 159.11174011 C-121.67712585 158.41016785 -121.18599304 157.70859558 -120.67997742 156.98576355 C-120.24387146 156.35927917 -119.8077655 155.7327948 -119.35844421 155.08732605 C-118.04325867 153.36076355 -118.04325867 153.36076355 -116.52470398 151.84880066 C-114.9877363 150.30499413 -113.8805168 148.756962 -112.70341492 146.9271698 C-112.27995789 146.27812683 -111.85650085 145.62908386 -111.42021179 144.96037292 C-110.54683735 143.60683721 -109.67443448 142.25267407 -108.80302429 140.89787292 C-106.46313709 137.31525352 -104.11178185 134.36271128 -101.04325867 131.36076355 C-99.41882093 129.19208392 -97.84179092 127.01922861 -96.29325867 124.79826355 C-95.40689066 123.54280751 -94.52016764 122.28760206 -93.63310242 121.03263855 C-93.1959491 120.41195496 -92.75879578 119.79127136 -92.30839539 119.15177917 C-88.15582767 113.27311519 -83.93116759 107.45522778 -79.48075867 101.79826355 C-76.39826897 97.87829377 -73.53579064 93.83434247 -70.71903992 89.72013855 C-69.57234769 88.10568143 -68.37067348 86.5292784 -67.12528992 84.9896698 C-64.27065284 81.38522186 -61.75508427 77.57316116 -59.22294617 73.73771667 C-58.21241774 72.24411469 -57.13298535 70.79760395 -56.04325867 69.36076355 C-55.38325867 69.36076355 -54.72325867 69.36076355 -54.04325867 69.36076355 C-53.68747742 68.33402527 -53.68747742 68.33402527 -53.32450867 67.2865448 C-51.77816973 63.75542327 -49.739458 60.69521372 -47.54325867 57.54826355 C-46.93804382 56.65204285 -46.93804382 56.65204285 -46.32060242 55.73771667 C-45.28286085 54.23932744 -44.1685007 52.79460741 -43.04325867 51.36076355 C-42.38325867 51.36076355 -41.72325867 51.36076355 -41.04325867 51.36076355 C-40.84216492 50.7059198 -40.64107117 50.05107605 -40.43388367 49.37638855 C-38.48046072 45.14031407 -35.67556737 41.75725091 -32.79325867 38.11076355 C-28.64040221 32.79057461 -24.61627204 27.50046657 -21.09403992 21.7318573 C-20.7472821 21.27939636 -20.40052429 20.82693542 -20.04325867 20.36076355 C-19.38325867 20.36076355 -18.72325867 20.36076355 -18.04325867 20.36076355 C-17.8047821 19.66209167 -17.56630554 18.9634198 -17.32060242 18.24357605 C-15.81241167 14.83976941 -13.86326444 12.19387456 -11.60575867 9.23576355 C-10.82329773 8.20193542 -10.04083679 7.1681073 -9.23466492 6.10295105 C-4.34404734 -0.01685917 -4.34404734 -0.01685917 0 0 Z " fill="#024263" transform="translate(3775.043258666992,568.6392364501953)"/>
<path d="M0 0 C2.49382423 0.06484089 4.98773447 0.12475367 7.48168945 0.18432617 C18.40065319 0.45773313 29.29282839 0.95929409 40.19458008 1.62768555 C40.24403055 7.53587626 40.28032371 13.44394639 40.30444336 19.35229492 C40.31449878 21.36208189 40.32814493 23.37185425 40.34545898 25.3815918 C40.36972732 28.27095143 40.38106779 31.16011756 40.38989258 34.04956055 C40.40021515 34.94761414 40.41053772 35.84566772 40.4211731 36.77093506 C40.42132416 37.61150452 40.42147522 38.45207397 40.42163086 39.31811523 C40.42607208 40.05535828 40.43051331 40.79260132 40.43508911 41.55218506 C40.15921381 43.93288281 39.3735944 45.55784986 38.19458008 47.62768555 C37.53458008 47.62768555 36.87458008 47.62768555 36.19458008 47.62768555 C36.00895508 48.28768555 35.82333008 48.94768555 35.63208008 49.62768555 C30.3317002 60.68934789 18.83196621 68.25989685 8.19458008 73.62768555 C7.10918945 74.19487305 6.02379883 74.76206055 4.90551758 75.34643555 C-2.15256495 78.99797246 -9.24811445 82.1361364 -16.80541992 84.62768555 C-18.13959961 85.11108398 -18.13959961 85.11108398 -19.50073242 85.60424805 C-23.84135931 86.94850838 -28.22412202 87.81945275 -32.68041992 88.69018555 C-33.54022461 88.86356445 -34.4000293 89.03694336 -35.28588867 89.21557617 C-49.89407409 92.10839589 -64.13080432 92.61598461 -78.86791992 90.31518555 C-80.00837769 90.13874512 -80.00837769 90.13874512 -81.171875 89.95874023 C-86.58369514 89.03259003 -91.64554063 87.48541152 -96.80541992 85.62768555 C-97.56822266 85.36028564 -98.33102539 85.09288574 -99.11694336 84.81738281 C-108.8045943 81.28595208 -116.80340498 73.22027961 -121.65698242 64.2565918 C-126.32297538 53.57559432 -127.63252454 42.10426932 -123.84057617 30.9753418 C-120.63864261 23.71359814 -115.44199165 18.79404104 -108.80541992 14.62768555 C-108.02295898 14.13526367 -107.24049805 13.6428418 -106.43432617 13.13549805 C-89.92701336 3.88756953 -70.37781087 1.65005015 -51.80541992 0.62768555 C-50.03977967 0.51725207 -48.27415448 0.40657751 -46.50854492 0.2956543 C-30.99578682 -0.61056944 -15.52551595 -0.40741038 0 0 Z " fill="#FEFEFE" transform="translate(3336.805419921875,767.372314453125)"/>
<path d="M0 0 C0.65959717 0.31984863 1.31919434 0.63969727 1.9987793 0.96923828 C6.17966919 3.11347846 9.14605318 5.55570272 12.3125 9 C13.14910156 9.81597656 13.98570312 10.63195312 14.84765625 11.47265625 C21.66683695 18.46047202 25.95859819 24.93152875 26.45703125 34.88671875 C26.00466663 43.65281161 22.84597103 51.95846091 16.3125 58 C-3.37195757 74.58148889 -27.77206091 72.29778142 -52.07548261 72.20278788 C-55.86972651 72.19013086 -59.66397493 72.1890984 -63.45823669 72.18673706 C-70.61526743 72.18056565 -77.77223574 72.16421477 -84.92923921 72.14403808 C-93.08908242 72.12154249 -101.24892889 72.1106516 -109.40879548 72.10064721 C-126.16839996 72.07984373 -142.92794197 72.0447539 -159.6875 72 C-158.01624617 61.3047195 -153.58208699 51.9948061 -147.6875 43 C-147.0790625 42.03191406 -146.470625 41.06382812 -145.84375 40.06640625 C-129.77229382 15.03447549 -105.39628529 -1.73486743 -76.6875 -9 C-51.18698641 -14.46311214 -23.35620517 -11.37900796 0 0 Z " fill="#FEFEFE" transform="translate(1997.6875,638)"/>
<path d="M0 0 C12.78662862 -0.25502286 25.57265121 -0.45039583 38.36130619 -0.56993389 C44.29997215 -0.62731198 50.23689687 -0.70511118 56.17456055 -0.82983398 C61.90649404 -0.94947994 67.63675472 -1.0151501 73.36984062 -1.04364967 C75.55532614 -1.06395419 77.74072135 -1.10360837 79.92549324 -1.16303062 C97.06831521 -1.61068445 97.06831521 -1.61068445 101.81124878 2.34408569 C103.63414596 5.18322428 104.80520153 7.85513272 106 11 C107.12138351 12.71792502 108.28307879 14.41087349 109.5 16.0625 C110.07234375 16.87203125 110.6446875 17.6815625 111.234375 18.515625 C112.10835937 19.74539063 112.10835937 19.74539063 113 21 C114.25203041 22.76939835 115.50205947 24.54021471 116.75 26.3125 C117.30171875 27.09238281 117.8534375 27.87226562 118.421875 28.67578125 C123 35.41831683 123 35.41831683 123 38 C123.66 38 124.32 38 125 38 C126.3792157 40.0389704 127.64176686 42.0625797 128.875 44.1875 C131.3288052 48.37203091 133.91371264 52.24742657 137 56 C139.07611172 58.94997108 141.03237823 61.97680703 143 65 C143.64066406 65.97582031 144.28132813 66.95164062 144.94140625 67.95703125 C145.89853516 69.43236328 145.89853516 69.43236328 146.875 70.9375 C147.47054687 71.85402344 148.06609375 72.77054688 148.6796875 73.71484375 C150 76 150 76 150 78 C150.66 78 151.32 78 152 78 C151.36589356 81.98718441 149.36173943 84.75654996 147.125 88.0625 C146.42632813 89.10535156 145.72765625 90.14820313 145.0078125 91.22265625 C143 94 143 94 141.3046875 95.68359375 C139.72667531 97.08129036 139.72667531 97.08129036 139 100 C138.34 100 137.68 100 137 100 C136.74476563 100.72960937 136.48953125 101.45921875 136.2265625 102.2109375 C134.9312618 105.15630279 133.43899512 107.16629665 131.375 109.625 C123.93800445 118.34202669 123.93800445 118.34202669 118.0234375 128.0703125 C116.72820381 130.51247067 114.96560482 132.06367793 113 134 C111.77838627 135.66297095 110.59101154 137.35158691 109.4375 139.0625 C107.46843567 141.97882022 105.58483062 144.60372846 103 147 C99 142.25 99 142.25 99 140 C98.34 140 97.68 140 97 140 C95.55036041 138.09625645 94.18815677 136.12532841 92.875 134.125 C91.78832031 132.48917969 91.78832031 132.48917969 90.6796875 130.8203125 C89 128 89 128 89 126 C88.34 126 87.68 126 87 126 C85.60181346 123.91904721 84.31662363 121.85287677 83.0625 119.6875 C80.9746171 116.1121458 78.98735496 112.89448382 76 110 C74.56831736 108.00440413 73.17543709 105.98066435 71.8125 103.9375 C71.09707031 102.87402344 70.38164062 101.81054688 69.64453125 100.71484375 C68 98 68 98 68 96 C67.34 96 66.68 96 66 96 C64.60181346 93.91904721 63.31662363 91.85287677 62.0625 89.6875 C59.97605553 86.11460901 57.99603524 82.88477664 55 80 C53.75883506 78.23091875 52.5546236 76.43569795 51.375 74.625 C45.62937864 65.90094992 39.77547957 57.26120801 33.453125 48.94140625 C28.24665715 41.98545323 23.46293889 34.73131745 18.69921875 27.46875 C17.08592824 24.96488744 17.08592824 24.96488744 15 23 C15 22.01 15 21.02 15 20 C14.34 20 13.68 20 13 20 C11.65839214 18.19638149 10.40153103 16.32934567 9.1875 14.4375 C6.85482337 10.84288356 4.52705582 7.27362516 2 3.8125 C0 1 0 1 0 0 Z " fill="#014263" transform="translate(3521,569)"/>
</svg>
